<?xml version="1.0" encoding="iso-8859-1"?>
<!-- Generator: Adobe Illustrator 19.0.0, SVG Export Plug-In . SVG Version: 6.00 Build 0)  -->
<svg version="1.1" id="Capa_1" xmlns="http://www.w3.org/2000/svg" xmlns:xlink="http://www.w3.org/1999/xlink" x="0px" y="0px"
	 viewBox="0 0 469.337 469.337" style="enable-background:new 0 0 469.337 469.337;" xml:space="preserve">
<path style="fill:#DFD2F2;" d="M85.334,42.667H426.67c23.564,0,42.667,19.103,42.667,42.667V426.67
	c0,23.564-19.103,42.667-42.667,42.667H85.334c-23.564,0-42.667-19.103-42.667-42.667V85.334
	C42.667,61.769,61.769,42.667,85.334,42.667z"/>
<g>
	<path style="fill:#C5ADE7;" d="M85.33,405.337h192.004c11.782,0,21.333,9.551,21.333,21.333v0.001
		c0,11.782-9.551,21.333-21.333,21.333H85.33c-11.782,0-21.333-9.551-21.333-21.333v-0.001
		C63.997,414.888,73.548,405.337,85.33,405.337z"/>
	<path style="fill:#C5ADE7;" d="M264.833,396.502l128.001-128.001c11.782-11.782,30.885-11.782,42.667,0l0,0
		c11.782,11.782,11.782,30.885,0,42.667L307.5,439.169c-11.782,11.782-30.885,11.782-42.667,0l0,0
		C253.051,427.387,253.051,408.284,264.833,396.502z"/>
</g>
<path style="fill:#E7455F;" d="M85.333,85.333h341.333v256H85.333L85.333,85.333z"/>
<path style="fill:#F2EDF9;" d="M42.667,0H384c23.564,0,42.667,19.103,42.667,42.667v195.66c0,11.316-4.495,22.168-12.497,30.17
	L268.497,414.17c-8.002,8.002-18.854,12.497-30.17,12.497H42.667C19.103,426.667,0,407.564,0,384c0,0,0,0,0,0V42.667
	C0,19.103,19.103,0,42.667,0L42.667,0L42.667,0z"/>
<path style="fill:#F7B236;" d="M42.667,42.667H384v256H42.667V42.667z"/>
<path style="fill:#5628B4;" d="M384,257.958c-7.166-2.7-15.085-2.605-22.185,0.264c-4.544-28.982-31.723-48.792-60.705-44.248
	c-14.24,2.233-26.961,10.156-35.243,21.953c-3.228-0.805-6.54-1.228-9.867-1.26c-0.365,0-0.702,0.098-1.064,0.107
	c-5.8-28.846-33.885-47.528-62.731-41.728c-21.363,4.295-37.956,21.167-41.896,42.598c-10.754,1.965-20.64,7.201-28.309,14.992
	c-13.507-30.304-48.224-44.913-79.335-33.383v81.414h169.421c0.068-0.335,0.207-0.641,0.27-0.977
	c1.876-0.398,3.729-0.899,5.549-1.501c0.448,0.902,1.171,1.612,1.678,2.478H384V257.958z"/>
<path style="fill:#E7455F;" d="M117.327,42.667h0.01c29.453,0,53.33,23.877,53.33,53.33v106.67c0,29.453-23.877,53.33-53.33,53.33
	h-0.01c-29.453,0-53.33-23.877-53.33-53.33V95.997C63.997,66.543,87.873,42.667,117.327,42.667z"/>
<path style="fill:#EB647A;" d="M181.337,85.337L181.337,85.337c17.673,0,32,14.327,32,32v64c0,17.673-14.327,32-32,32l0,0
	c-17.673,0-32-14.327-32-32v-64C149.337,99.664,163.664,85.337,181.337,85.337z"/>
<path style="fill:#5628B4;" d="M106.667,170.667H128v128h-21.333V170.667z"/>
<path style="fill:#683FBC;" d="M213.333,256c-3.327,0.032-6.639,0.455-9.867,1.26c-16.985-24.032-50.236-29.745-74.269-12.76
	c-17.263,12.201-25.681,33.453-21.455,54.166H256C256,275.103,236.898,256,213.333,256C213.334,256,213.334,256,213.333,256
	L213.333,256z"/>
<path style="fill:#FDFCFE;" d="M298.667,256h99.378c6.548,0,11.856,5.308,11.856,11.856c0,3.144-1.249,6.16-3.472,8.383
	L276.239,406.428c-4.63,4.63-12.137,4.63-16.767,0c-2.223-2.223-3.472-5.239-3.472-8.383v-99.378
	C256,275.103,275.103,256,298.667,256L298.667,256L298.667,256z"/>
<path style="fill:#E5DCF3;" d="M234.67,298.667h0.001c11.782,0,21.333,9.551,21.333,21.333v85.334
	c0,11.782-9.551,21.333-21.333,21.333h-0.001c-11.782,0-21.333-9.551-21.333-21.333V320
	C213.337,308.218,222.888,298.667,234.67,298.667z"/>
<g>
</g>
<g>
</g>
<g>
</g>
<g>
</g>
<g>
</g>
<g>
</g>
<g>
</g>
<g>
</g>
<g>
</g>
<g>
</g>
<g>
</g>
<g>
</g>
<g>
</g>
<g>
</g>
<g>
</g>
</svg>
